<?xml version="1.0" encoding="utf-8"?>
<!-- Generator: Adobe Illustrator 19.2.1, SVG Export Plug-In . SVG Version: 6.00 Build 0)  -->
<svg version="1.1" id="Layer_1" xmlns="http://www.w3.org/2000/svg" xmlns:xlink="http://www.w3.org/1999/xlink" x="0px" y="0px"
	 viewBox="0 0 560 105" style="enable-background:new 0 0 560 105;" xml:space="preserve">
<style type="text/css">
	.st0{fill:#FFF65A;}
	.st1{fill:#8A4E6B;}
	.st2{fill:#F13A07;}
	.st3{fill:#7DBC40;}
	.st4{fill:#DF7A96;}
	.st5{fill:#095B9D;}
	.st6{fill:#5D4C58;}
</style>
<g>
	<g>
		<g>
			<path class="st0" d="M71.8,33c-11.2-11.2-29.4-11.2-40.6,0s-11.2,29.4,0,40.6s29.4,11.2,40.6,0c2.2-2.2,3.9-4.6,5.3-7.2
				C82.6,55.6,80.9,42.1,71.8,33z"/>
			<path class="st1" d="M51.5,84c-7.9,0-15.7-3-21.7-9c-5.8-5.8-9-13.5-9-21.7c0-8.2,3.2-15.9,9-21.7c12-12,31.5-12,43.4,0
				c9.5,9.5,11.7,23.8,5.6,35.7c-1.5,2.8-3.4,5.4-5.6,7.7C67.3,81.1,59.4,84,51.5,84z M51.5,26.6c-6.8,0-13.7,2.6-18.9,7.8
				c-10.4,10.4-10.4,27.4,0,37.8C43,82.7,60,82.7,70.4,72.2c2-2,3.6-4.2,4.9-6.7c5.3-10.4,3.3-22.8-4.9-31.1
				C65.2,29.2,58.4,26.6,51.5,26.6z"/>
		</g>
		<path class="st1" d="M54.2,82c-4.4,0-8.7-1.1-12.7-3.3c-11.6-6.4-16.2-19.2-11-31c2.2-5.1,6.7-9.1,12.3-11.2
			c5.1-1.9,10.4-1.8,14.7,0.3c5.4,2.6,9.1,6.7,10.7,11.7c1.5,4.6,0.9,9.7-1.7,14.2c-5.3,9.5-14.4,10.4-21,7.1
			c-2.1-1.1-4.8-3.7-5.8-7.2c-0.8-2.8-0.4-5.6,1.1-8.1c1.8-2.9,4.8-4.9,7.9-5.1c2.8-0.2,5.5,0.9,7.5,3.2c0.7,0.8,0.6,2.1-0.2,2.8
			c-0.8,0.7-2.1,0.6-2.8-0.2c-1.2-1.4-2.6-2-4.2-1.9c-1.9,0.2-3.8,1.4-4.9,3.2c-0.9,1.5-1.2,3.2-0.6,4.9c0.6,2.2,2.4,4.1,3.7,4.8
			c4.6,2.3,11.4,2.2,15.7-5.5c2-3.5,2.4-7.4,1.3-11c-1.2-3.9-4.2-7.1-8.6-9.3c-3.3-1.6-7.5-1.7-11.6-0.2c-4.5,1.7-8.2,5-10,9.1
			c-4.4,10-0.6,20.4,9.3,25.9c5.4,3,11.6,3.6,17.6,1.7c6.4-2,11.7-6.5,14.7-12.5c0.5-1,1.7-1.4,2.7-0.9c1,0.5,1.4,1.7,0.9,2.7
			c-3.5,6.9-9.7,12.2-17.1,14.5C59.6,81.6,56.9,82,54.2,82z"/>
		<path class="st2" d="M101.6,50.3c-4.2,0-8.3,0-12.5,0c-1.4,0-1.4,4.5,0,4.5c4.2,0,8.3,0,12.5,0C102.9,54.8,103,50.3,101.6,50.3
			L101.6,50.3z"/>
		<path class="st3" d="M16.1,50.2c-4.2,0-8.3,0-12.5,0c-1.4,0-1.4,4.5,0,4.5c4.2,0,8.3,0,12.5,0C17.5,54.7,17.5,50.2,16.1,50.2
			L16.1,50.2z"/>
		<path class="st4" d="M54.8,101.5c0-4.2,0-8.3,0-12.5c0-1.4-4.5-1.4-4.5,0c0,4.2,0,8.3,0,12.5C50.3,102.8,54.8,102.9,54.8,101.5
			L54.8,101.5z"/>
		<path class="st5" d="M54.9,16c0-4.2,0-8.3,0-12.5c0-1.4-4.7-1.4-4.5,0.1c0,4.1,0,8.2,0,12.4C50.3,17.4,54.9,17.4,54.9,16L54.9,16z
			"/>
		<g>
			
				<ellipse transform="matrix(0.9999 -1.622991e-02 1.622991e-02 0.9999 -0.639 1.4464)" class="st1" cx="88.8" cy="40.1" rx="2.3" ry="2.3"/>
			<ellipse transform="matrix(0.912 -0.4101 0.4101 0.912 -3.7588 35.3499)" class="st1" cx="80.5" cy="26.4" rx="2.3" ry="2.3"/>
			<ellipse transform="matrix(0.6757 -0.7372 0.7372 0.6757 9.2488 55.3487)" class="st1" cx="67.5" cy="17.2" rx="2.3" ry="2.3"/>
		</g>
		<g>
			
				<ellipse transform="matrix(0.9968 -7.992326e-02 7.992326e-02 0.9968 -1.2426 2.9252)" class="st1" cx="35.9" cy="17" rx="2.3" ry="2.3"/>
			<ellipse transform="matrix(0.884 -0.4674 0.4674 0.884 -9.5587 13.6943)" class="st1" cx="22.8" cy="26.1" rx="2.3" ry="2.3"/>
			
				<ellipse transform="matrix(0.6273 -0.7788 0.7788 0.6273 -25.5319 25.9956)" class="st1" cx="14.4" cy="39.7" rx="2.3" ry="2.3"/>
		</g>
		<g>
			
				<ellipse transform="matrix(0.998 -6.326215e-02 6.326215e-02 0.998 -4.2929 1.0799)" class="st1" cx="14.9" cy="68.3" rx="2.3" ry="2.3"/>
			
				<ellipse transform="matrix(0.8917 -0.4526 0.4526 0.8917 -34.3445 19.6108)" class="st1" cx="23.8" cy="81.6" rx="2.3" ry="2.3"/>
			<ellipse transform="matrix(0.6402 -0.7682 0.7682 0.6402 -55.922 61.0657)" class="st1" cx="37.2" cy="90.2" rx="2.3" ry="2.3"/>
		</g>
		<g>
			<ellipse transform="matrix(0.9923 -0.124 0.124 0.9923 -10.5025 9.2073)" class="st1" cx="68.7" cy="89" rx="2.3" ry="2.3"/>
			
				<ellipse transform="matrix(0.8625 -0.5061 0.5061 0.8625 -28.9275 52.0993)" class="st1" cx="81.4" cy="79.3" rx="2.3" ry="2.3"/>
			<ellipse transform="matrix(0.5922 -0.8058 0.8058 0.5922 -16.279 98.5412)" class="st1" cx="89.2" cy="65.4" rx="2.3" ry="2.3"/>
		</g>
	</g>
	<g>
		<path class="st6" d="M171.4,36v37.8H168L141.5,41v27.4l6.3,2.9l-1.2,2.5h-13.7v-2l5.3-4.1V35.5l-5.9-3.2l1.3-2.5h8.7l25.8,32V35.2
			l-6.3-2.9l1.3-2.5h13.7v2L171.4,36z"/>
		<path class="st6" d="M199.8,73.8c-1.6,0.3-3.5,0.5-5.8,0.5c-2.5,0-4.7-0.6-6.7-1.9c-2-1.3-3.6-3-4.7-5.2c-1.1-2.2-1.7-4.6-1.7-7.3
			c0-2.9,0.9-5.6,2.7-8.1c1.8-2.5,4-4.5,6.7-6c2.7-1.5,5.3-2.3,7.8-2.3c3.6,0,6.4,1.4,8.4,4.3c2,2.8,3,6.6,2.9,11.4h-20.6
			c0.3,3,1.1,5.4,2.6,7.3c1.5,1.9,3.4,2.8,5.9,2.8c2.5,0,6-1.8,10.5-5.3l1.7,2.3L199.8,73.8z M188.7,56.4h12.6
			c-0.3-1.9-0.7-3.4-1-4.4c-0.4-1-1-1.9-1.8-2.5c-0.9-0.7-2.1-1-3.7-1h0.1C190.9,48.5,188.9,51.1,188.7,56.4z"/>
		<path class="st6" d="M262.5,46l-12.6,27.8h-4.8L239.4,60l-7,13.8h-4.8l-8.7-21.1l-5.3-3.1v-2l10.1-4.7l2.1,8.4l6.7,16.2l5.3-11.2
			l-1.5-3.7l-5.3-3.1v-2l10.1-4.7l2.1,8.4l6.5,15.8l6.5-15l-7.9-5.6l1.2-2.5l12.6,0.1V46z"/>
		<path class="st6" d="M281.8,64.8c-1.1-0.8-2.8-1.9-5.1-3.1c-2-1-3.6-1.9-4.7-2.7c-1.2-0.7-2.2-1.6-3-2.6c-0.8-1-1.3-2.1-1.3-3.3
			c0-1.3,0.6-2.8,1.7-4.3c1.2-1.5,2.6-2.8,4.3-3.9c1.7-1,3.3-1.6,4.7-1.6c1.8,0,3.8,0.2,6.1,0.6c2.3,0.4,4,0.9,5,1.4v8.8h-2.4
			c-1.2-2.2-2.5-3.9-4-5.2c-1.5-1.2-3.1-1.9-4.8-1.9c-1.1,0-1.9,0.3-2.6,0.9c-0.7,0.6-1,1.3-1,2.2c0,1.1,0.6,2.1,1.7,2.9
			c1.2,0.9,2.9,1.9,5.4,3.2c1.9,1,3.4,1.8,4.6,2.5c1.2,0.7,2.1,1.6,3,2.5c0.8,1,1.2,2,1.2,3.2c0,1.4-0.6,2.8-1.8,4.3
			c-1.2,1.5-2.7,2.8-4.4,3.8c-1.7,1-3.3,1.6-4.8,1.6c-1.9,0-4.1-0.2-6.7-0.7c-2.6-0.4-4.4-0.9-5.5-1.4v-8.8h2.4
			c1.3,2.2,2.8,4,4.5,5.2c1.8,1.2,3.5,1.9,5.3,1.9c1.2,0,2.1-0.3,2.8-0.9c0.7-0.6,1.1-1.3,1.1-2.1C283.5,66.5,282.9,65.6,281.8,64.8
			z"/>
		<path class="st6" d="M336.1,60.8c-0.9-1-2.1-1.9-3.5-2.8c-1.4-0.8-3.2-1.9-5.6-3.1c-2.8-1.5-5.1-2.7-6.8-3.8
			c-1.7-1.1-3.2-2.4-4.4-3.8c-1.2-1.5-1.8-3.1-1.8-4.9c0-1.9,0.8-3.9,2.4-6s3.5-4,5.8-5.4c2.3-1.5,4.4-2.2,6.4-2.2
			c2.3,0,5.1,0.3,8.2,0.8c3.1,0.6,5.4,1.2,6.9,1.8v11.1h-2.7c-1.8-3-3.7-5.4-5.8-7c-2.1-1.7-4.4-2.5-6.7-2.5c-2,0-3.6,0.6-4.8,1.9
			c-1.2,1.3-1.7,2.9-1.7,4.8c0,1.2,0.5,2.4,1.4,3.4c1,1.1,2.1,2,3.6,2.9c1.4,0.9,3.3,1.9,5.7,3.1c2.8,1.5,5.1,2.8,6.7,3.8
			c1.7,1,3.1,2.3,4.2,3.7c1.2,1.4,1.8,3,1.8,4.8c0,1.9-0.8,3.9-2.5,6c-1.7,2.1-3.8,4-6.2,5.4c-2.5,1.5-4.7,2.2-6.7,2.2
			c-2.5,0-5.4-0.3-8.8-0.8c-3.4-0.6-5.8-1.2-7.3-1.8V61.2h2.7c1.9,3,4,5.4,6.3,7c2.4,1.7,4.8,2.5,7.3,2.5c1.5,0,2.8-0.3,3.9-1
			c1.1-0.6,2-1.5,2.6-2.5c0.6-1,0.9-2.1,0.9-3.3C337.5,62.8,337,61.8,336.1,60.8z"/>
		<path class="st6" d="M384.4,73.8h-11V55.2c0-2-0.3-3.4-1-4.2c-0.6-0.8-1.7-1.2-3.3-1.2c-1.2,0-2.3,0.2-3.5,0.6
			c-1.2,0.4-2.5,1.2-4,2.3v16.7l5,1.8l-1.3,2.5h-16v-2l5-4V34.2l-5-3.5v-2l9.8-3.7h2.4v24.8l7.4-5.9c0.9-0.3,1.9-0.4,3.1-0.4
			c2.6,0,4.7,0.8,6.2,2.3c1.5,1.5,2.3,3.6,2.3,6.3v17.4l5,1.9L384.4,73.8z"/>
		<path class="st6" d="M419.9,73.8h-11.1v-4.9l-6.3,5c-0.7,0.3-1.7,0.4-2.8,0.4c-3.3,0-5.6-0.8-7.1-2.4c-1.5-1.6-2.2-3.6-2.2-5.9
			c0-1.3,0.5-2.7,1.4-4c0.9-1.3,2.3-2.6,4.1-3.8h12.9v-3c0-4.4-2.3-6.5-7-6.5c-2.3,0-5.3,1.3-8.8,4l-1.7-2.3l8-6.3
			c1.7-0.4,3.6-0.6,5.6-0.6c3.5,0,6.3,0.9,8.2,2.6c2,1.7,2.9,4.2,2.9,7.4v15.9l5,2L419.9,73.8z M408.9,66.1v-5.3h-9.7
			c-0.4,0.6-0.8,1.1-1,1.7c-0.2,0.6-0.3,1.2-0.3,1.8c0,1.3,0.4,2.4,1.1,3.3c0.7,0.9,1.6,1.4,2.8,1.4C404,69,406.3,68,408.9,66.1z"/>
		<path class="st6" d="M479.2,73.8h-11.1V55c0-1.9-0.3-3.3-0.9-4.1c-0.6-0.8-1.7-1.2-3.2-1.2c-1.1,0-2.2,0.2-3.2,0.6
			c-1.1,0.4-2.3,1.2-3.7,2.3v16.7l5,1.8l-1.2,2.5h-11V55c0-1.9-0.3-3.3-0.9-4.1c-0.6-0.8-1.7-1.2-3.2-1.2c-1.1,0-2.2,0.2-3.2,0.6
			c-1.1,0.4-2.3,1.2-3.7,2.3v16.8l4.9,1.8l-1.2,2.5h-15.9v-2l5-4V52.6l-5-3v-2l10-4.8l1.9,7l7.3-6.1c0.9-0.3,1.9-0.4,3.1-0.4
			c2.2,0,4,0.6,5.4,1.7c1.4,1.1,2.4,2.7,2.8,4.7l7.2-6c0.9-0.3,1.9-0.4,3.1-0.4c2.6,0,4.6,0.8,6.1,2.3c1.5,1.5,2.3,3.6,2.3,6.3v17.4
			l5,1.8L479.2,73.8z"/>
		<path class="st6" d="M514.7,73.8h-11.1v-4.9l-6.3,5c-0.7,0.3-1.7,0.4-2.8,0.4c-3.3,0-5.6-0.8-7.1-2.4c-1.5-1.6-2.2-3.6-2.2-5.9
			c0-1.3,0.5-2.7,1.4-4c0.9-1.3,2.3-2.6,4.1-3.8h12.9v-3c0-4.4-2.3-6.5-7-6.5c-2.3,0-5.3,1.3-8.8,4l-1.7-2.3l8-6.3
			c1.7-0.4,3.6-0.6,5.6-0.6c3.5,0,6.3,0.9,8.2,2.6c2,1.7,2.9,4.2,2.9,7.4v15.9l5,2L514.7,73.8z M503.6,66.1v-5.3h-9.7
			c-0.4,0.6-0.8,1.1-1,1.7c-0.2,0.6-0.3,1.2-0.3,1.8c0,1.3,0.4,2.4,1.1,3.3c0.7,0.9,1.6,1.4,2.8,1.4C498.7,69,501.1,68,503.6,66.1z"
			/>
		<path class="st6" d="M556.1,73.8h-11V55.2c0-2-0.3-3.4-1-4.2c-0.6-0.8-1.7-1.2-3.3-1.2c-1.2,0-2.3,0.2-3.5,0.6
			c-1.2,0.4-2.5,1.2-4,2.3v16.7l5,1.8l-1.3,2.5h-16v-2l5-4V52.6l-5-3v-2l10-4.8l2,7.1l7.7-6.2c0.9-0.3,1.9-0.4,3.1-0.4
			c2.6,0,4.7,0.8,6.2,2.3c1.5,1.5,2.3,3.6,2.3,6.3v17.4l5,1.9L556.1,73.8z"/>
	</g>
</g>
</svg>
