<?xml version="1.0" encoding="utf-8"?>
<!-- Generator: Adobe Illustrator 19.2.1, SVG Export Plug-In . SVG Version: 6.00 Build 0)  -->
<svg version="1.1" id="Layer_1" xmlns="http://www.w3.org/2000/svg" xmlns:xlink="http://www.w3.org/1999/xlink" x="0px" y="0px"
	 viewBox="0 0 490 410" style="enable-background:new 0 0 490 410;" xml:space="preserve">
<style type="text/css">
	.st0{fill:#F8F7F5;}
	.st1{fill:#FFFFFF;}
	.st2{fill:#8A4E6B;}
	.st3{fill:#FFF65A;}
	.st4{fill:#DF7A96;}
	.st5{fill:#F13A07;}
	.st6{fill:#095B9D;}
	.st7{fill:#7DBC40;}
	.st8{fill:#D0B8C4;}
</style>
<g>
	<g>
		<path class="st0" d="M487.5,116.3c-0.1-1.6-2-2.3-6.8-1.5c-4.8,0.8-26.9,4.8-26.9,4.8l0-0.2c0,0,21.9-4.6,26.8-5.4
			c4.8-0.8,6.4-2.2,6-3.7c-0.4-2.5-12.4-1.3-22,0.1c6.1-1,12.7-2.1,15-2.5c4.8-0.8,6.4-2.2,6-3.7c-0.7-4.2-34.1,1.3-34.1,1.3
			c-81.9,10.2-130-32.3-130-32.3c-24.4-18.4-54-18.1-54-18.1c5.8-5.2,9.5-12.3,9.5-20.3c0-15.7-14.2-28.5-31.7-28.5
			c-17.5,0-31.7,12.7-31.7,28.5c0,7.9,3.6,15.1,9.5,20.3c0,0-29.7-0.3-54,18.1c0,0-48,42.5-130,32.3c0,0-33.4-5.5-34.1-1.3
			c-0.4,1.5,1.1,2.9,6,3.7c2.4,0.4,9,1.5,15,2.5c-9.6-1.4-21.6-2.6-22-0.1c-0.4,1.5,1.1,2.9,6,3.7c4.8,0.8,26.8,5.4,26.8,5.4l0,0.2
			c0,0-22-4-26.9-4.8c-4.8-0.8-6.7-0.1-6.8,1.5C1.8,120.5,37,126.9,37,126.9c67.3,13.1,125.3-17.8,143-28.7l-1,0.9l26,193.6
			c0.6,3.8,9.3,59.1,20.3,59.1s1.6-59.1,1.6-59.1h36c0,0-9.5,59.1,1.6,59.1c11.1,0,19.7-55.3,20.3-59.1l26-193.6l-1.1-1
			c17.6,10.8,75.7,42,143.2,28.8C453,126.9,488.2,120.5,487.5,116.3z"/>
		<path class="st1" d="M266.1,276.4h-44c-0.7,0-1.3-0.5-1.4-1.2L197,80c0-0.4,0.1-0.8,0.3-1.1c0.3-0.3,0.6-0.5,1-0.5h93.1
			c0.4,0,0.8,0.2,1,0.5c0.3,0.3,0.4,0.7,0.3,1.1l-25.3,195.1C267.4,275.9,266.8,276.4,266.1,276.4z"/>
		<g>
			<g>
				<path class="st1" d="M264.7,28.2c0.7,0.7,0.7,1.9,0,2.6c-2.9,2.9-10.6,9.6-19.7,9.6s-16.8-6.7-19.7-9.6c-0.7-0.7-0.7-1.9,0-2.6
					c2.9-2.9,10.6-9.6,19.7-9.6S261.8,25.3,264.7,28.2z"/>
				<path class="st2" d="M245,41.8c-9.6,0-17.7-7-20.7-10c-0.6-0.6-1-1.4-1-2.3c0-0.9,0.3-1.7,1-2.3c3-3,11.1-10,20.7-10
					s17.7,7,20.7,10h0c0.6,0.6,1,1.4,1,2.3c0,0.9-0.3,1.7-1,2.3C262.6,34.8,254.6,41.8,245,41.8z M245,20c-8.6,0-16,6.4-18.7,9.2
					c-0.1,0.1-0.1,0.3-0.1,0.3c0,0.1,0,0.2,0.1,0.3C229,32.6,236.4,39,245,39s16-6.4,18.7-9.2c0.1-0.1,0.1-0.3,0.1-0.3
					c0-0.1,0-0.2-0.1-0.3h0C260.9,26.4,253.5,20,245,20z"/>
			</g>
			<path class="st2" d="M245.5,18.6c-0.2,0-0.3,0-0.5,0h0c-0.2,0-0.3,0-0.5,0c-4.4,0.1-8.4,1.8-11.7,3.7c0.5,6.3,5.8,11.2,12.2,11.2
				s11.7-4.9,12.2-11.2C253.9,20.4,249.8,18.7,245.5,18.6z"/>
			<path class="st1" d="M250.6,22.3c-0.4,0-0.7,0.3-0.7,0.7c0,0.3,0.2,0.5,0.4,0.7c-0.1,0.2-0.1,0.4-0.1,0.6c0,0.8,0.7,1.5,1.5,1.5
				s1.5-0.7,1.5-1.5s-0.7-1.5-1.5-1.5c-0.1,0-0.2,0-0.3,0C251.2,22.5,251,22.3,250.6,22.3z"/>
		</g>
		<path class="st2" d="M419.7,131.5c-8,0-16.1-0.5-24.3-1.6c-15.8-2-31.8-6.1-47.6-11.9c-26.9-10-44.1-22.1-44.2-22.3
			c-0.6-0.4-0.8-1.3-0.3-1.9c0.4-0.6,1.3-0.8,1.9-0.3c0.2,0.1,17.1,12.1,43.7,22c15.6,5.8,31.4,9.8,47,11.8
			c19.4,2.5,38.6,2,56.9-1.6c0.1,0,8.1-1.5,16.2-3.5c14.3-3.4,16.7-5.4,17.1-5.9c0,0,0-0.1-0.1-0.1c-0.2-0.1-1.2-0.7-5.1,0
			c-4.8,0.8-26.6,4.8-26.9,4.8c-0.4,0.1-0.7,0-1-0.2c-0.3-0.2-0.5-0.5-0.6-0.9l0-0.2c-0.1-0.7,0.3-1.4,1.1-1.6
			c0.9-0.2,22-4.6,26.8-5.4c4-0.7,4.7-1.6,4.8-1.8c0,0,0-0.1,0-0.1c-0.5-0.3-3.3-1.3-17,0.5c-1.2,0.2-2.4,0.3-3.5,0.5
			c-6.2,1-11.8,1.9-11.9,1.9c-0.7,0.1-1.4-0.4-1.6-1.1c-0.1-0.7,0.4-1.5,1.1-1.6c0.1,0,5.5-1,11.9-2c6.1-1,12.6-2.1,15-2.5
			c4-0.7,4.7-1.6,4.8-1.8c0,0,0-0.1,0-0.1c-0.5-0.3-3.2-1.3-17,0.1c-7.9,0.8-15.5,2.1-15.5,2.1c0,0,0,0-0.1,0
			c-18.8,2.4-37.4,2.1-55.3-0.7c-14.3-2.3-28.1-6.2-41.2-11.7c-21.8-9.2-33.7-19.4-34.6-20.2c-23.7-17.9-52.9-17.8-53.2-17.8
			c0,0,0,0,0,0c-0.6,0-1.1-0.4-1.3-0.9c-0.2-0.5-0.1-1.1,0.4-1.5c5.8-5.1,9-12,9-19.2c0-14.9-13.6-27.1-30.3-27.1
			s-30.3,12.2-30.3,27.1c0,7.3,3.2,14.1,9,19.2c0.4,0.4,0.6,1,0.4,1.5c-0.2,0.5-0.7,0.9-1.3,0.9c0,0,0,0-0.1,0
			c-1.2,0-29.8,0.2-53.1,17.8c-0.9,0.8-12.8,11-34.6,20.2c-13,5.5-26.9,9.4-41.2,11.7c-17.9,2.8-36.4,3.1-55.3,0.7c0,0,0,0-0.1,0
			c-0.1,0-7.6-1.3-15.5-2.1c-13.9-1.5-16.6-0.4-17-0.1c0,0.1,0,0.1,0,0.1c0.1,0.2,0.9,1.1,4.8,1.8c2.4,0.4,9,1.5,15,2.5
			c6.5,0.9,11.9,1.9,11.9,2c0.7,0.1,1.2,0.8,1.1,1.6c-0.1,0.7-0.8,1.2-1.6,1.1c-0.1,0-5.7-0.9-11.9-1.9c-1.2-0.2-2.4-0.3-3.6-0.5
			c-13.7-1.8-16.5-0.8-17-0.5c0,0,0,0.1,0,0.1c0.1,0.2,0.9,1.1,4.8,1.8c4.8,0.8,25.9,5.3,26.8,5.4c0.7,0.2,1.2,0.9,1.1,1.6l0,0.2
			c-0.1,0.4-0.3,0.7-0.6,0.9c-0.3,0.2-0.7,0.3-1,0.2c-0.2,0-22.1-4-26.9-4.8c-4-0.7-5-0.1-5.1,0c0,0-0.1,0.1-0.1,0.1
			c0.4,0.5,2.8,2.4,17.1,5.9c8.2,2,16.2,3.4,16.2,3.4c18.3,3.6,37.5,4.1,56.9,1.6c15.6-2,31.4-6,47-11.8c26.6-9.9,43.5-21.8,43.7-22
			c0.6-0.4,1.5-0.3,1.9,0.3c0.4,0.6,0.3,1.5-0.3,1.9c-0.2,0.1-17.4,12.3-44.2,22.3c-15.8,5.9-31.8,9.9-47.6,11.9
			c-19.8,2.6-39.2,2-57.8-1.6c-0.1,0-8.9-1.6-17.6-3.8c-5.1-1.3-9.2-2.4-12-3.5c-3.3-1.2-6.3-2.7-6-4.9c0.1-0.8,0.5-1.6,1.1-2.1
			c0.4-0.3,0.8-0.5,1.3-0.7c-0.4-0.3-0.8-0.7-1-1c-0.5-0.7-0.6-1.5-0.4-2.3c0.1-0.4,0.3-1,1-1.5c0.3-0.2,0.8-0.5,2.1-0.8
			c-0.8-0.4-1.3-0.9-1.7-1.5c-0.5-0.7-0.6-1.5-0.4-2.3c0.4-2.2,3.8-2.6,6.9-2.6c2.9-0.1,6.9,0.2,11.9,0.7c8.1,0.8,16.3,2.1,16.8,2.2
			c18.5,2.3,36.8,2.1,54.4-0.7c14.1-2.2,27.7-6.1,40.5-11.5c21.8-9.2,33.9-19.7,34-19.8c0,0,0.1,0,0.1-0.1
			c19.7-14.9,43.1-17.7,51.6-18.2c-4.9-5.3-7.6-12-7.6-19C211.9,18.4,226.8,5,245,5s33.1,13.4,33.1,29.8c0,7-2.7,13.7-7.6,19
			c8.5,0.5,31.9,3.4,51.6,18.2c0,0,0.1,0,0.1,0.1c0.1,0.1,12.2,10.6,34,19.8c12.8,5.4,26.4,9.2,40.5,11.5c17.6,2.8,35.9,3,54.4,0.7
			c0.5-0.1,8.7-1.4,16.8-2.2c5-0.5,8.9-0.7,11.9-0.7c3.2,0.1,6.5,0.4,6.9,2.6c0.2,0.8,0.1,1.6-0.4,2.3c-0.4,0.6-0.9,1.1-1.7,1.5
			c1.3,0.2,1.8,0.6,2.1,0.8c0.7,0.5,0.9,1,1,1.5c0.2,0.8,0.1,1.6-0.4,2.3c-0.2,0.4-0.6,0.7-1,1c0.5,0.2,0.9,0.4,1.3,0.7
			c0.7,0.5,1.1,1.2,1.1,2.1c0.3,2.2-2.7,3.7-6,4.9c-2.9,1.1-6.9,2.3-12,3.5c-8.6,2.1-17.5,3.8-17.6,3.8
			C442.3,130.4,431.1,131.5,419.7,131.5z M486.1,116.5C486.1,116.5,486.1,116.5,486.1,116.5C486.1,116.5,486.1,116.5,486.1,116.5z
			 M3.9,116.5C3.9,116.5,3.9,116.5,3.9,116.5C3.9,116.5,3.9,116.5,3.9,116.5z M485.1,110.5C485.1,110.5,485.1,110.5,485.1,110.5
			C485.1,110.5,485.1,110.5,485.1,110.5z M4.9,110.5C4.9,110.5,4.9,110.5,4.9,110.5C4.9,110.5,4.9,110.5,4.9,110.5z M484,104.4
			C484,104.4,484,104.4,484,104.4C484,104.4,484,104.4,484,104.4z"/>
		<path class="st2" d="M264.5,353.2c-1.3,0-2.5-0.6-3.4-1.7c-3.3-3.8-4.1-14.6-2.6-33.1c0.9-10.5,2.3-20.5,2.9-24.3h-32.8
			c0.6,3.8,2,13.8,2.9,24.3c1.5,18.4,0.7,29.3-2.6,33.1c-0.9,1.1-2.1,1.7-3.4,1.7c-7.2,0-12.2-16.5-15.4-29
			c-3.3-12.9-5.5-26.1-6.3-31.2l0,0l-26-193.6c-0.1-0.8,0.4-1.4,1.2-1.5c0.8-0.1,1.4,0.4,1.5,1.2l26,193.6c0.8,5.1,3,18.2,6.3,31
			c6.2,24.3,11,26.9,12.7,26.9c0.3,0,0.8-0.1,1.3-0.7c5.5-6.5,1-43.2-1.1-56.8c-0.1-0.4,0-0.8,0.3-1.1c0.3-0.3,0.6-0.5,1-0.5h36
			c0.4,0,0.8,0.2,1,0.5c0.3,0.3,0.4,0.7,0.3,1.1c-2.2,13.6-6.7,50.3-1.1,56.8c0.5,0.6,1,0.7,1.3,0.7c1.8,0,6.5-2.6,12.7-26.9
			c3.3-12.8,5.5-25.9,6.3-31l0,0l26-193.6c0.1-0.8,0.8-1.3,1.5-1.2c0.8,0.1,1.3,0.8,1.2,1.5l-26,193.6l0,0.1
			c-0.8,5.1-3,18.3-6.3,31.2C276.8,336.7,271.7,353.2,264.5,353.2z"/>
		<polygon class="st3" points="283.3,143.2 291.5,80.2 198.4,80.2 206,143.2 239.8,143.2 239.8,212.2 214.5,212.2 222.1,275.2 
			239.8,275.2 239.8,275.2 249.7,275.2 249.7,275.2 266.1,275.2 274.3,212.2 249.8,212.2 249.8,143.2 		"/>
		<polygon class="st4" points="271.8,79.9 266.8,79.9 264.3,123.3 269.3,123.3 		"/>
		<polygon class="st5" points="260,199.2 264.9,199.2 267.4,155.7 262.5,155.7 		"/>
		<polygon class="st6" points="218.1,79.9 223,79.9 225.5,123.3 220.6,123.3 		"/>
		<polygon class="st7" points="229.9,199.2 225,199.2 222.4,155.7 227.4,155.7 		"/>
		<path class="st2" d="M266.1,276.4h-44c-0.7,0-1.3-0.5-1.4-1.2L197,80c0-0.4,0.1-0.8,0.3-1.1c0.3-0.3,0.6-0.5,1-0.5h93.1
			c0.4,0,0.8,0.2,1,0.5c0.3,0.3,0.4,0.7,0.3,1.1l-25.3,195.1C267.4,275.9,266.8,276.4,266.1,276.4z M223.3,273.6h41.6l25-192.4h-90
			L223.3,273.6z"/>
	</g>
	<ellipse class="st8" cx="245" cy="395.9" rx="91.5" ry="9.1"/>
	<path class="st2" d="M270.9,294.1h-51.8c-0.8,0-1.4-0.6-1.4-1.4c0-0.8,0.6-1.4,1.4-1.4h51.8c0.8,0,1.4,0.6,1.4,1.4
		C272.2,293.5,271.6,294.1,270.9,294.1z"/>
</g>
</svg>
